<?xml version="1.0" standalone="no"?><!DOCTYPE svg PUBLIC "-//W3C//DTD SVG 1.1//EN" "http://www.w3.org/Graphics/SVG/1.1/DTD/svg11.dtd"><svg t="1710499156330" class="icon" viewBox="0 0 1024 1024" version="1.1" xmlns="http://www.w3.org/2000/svg" p-id="1971" xmlns:xlink="http://www.w3.org/1999/xlink" width="200" height="200"><path d="M512 101.888c-226.304 0-409.6 183.296-409.6 409.6s183.296 409.6 409.6 409.6 409.6-183.296 409.6-409.6-183.296-409.6-409.6-409.6z m-51.2 512c0 28.16-23.04 51.2-51.2 51.2s-51.2-23.04-51.2-51.2v-204.8c0-28.16 23.04-51.2 51.2-51.2s51.2 23.04 51.2 51.2v204.8z m204.8 0c0 28.16-23.04 51.2-51.2 51.2s-51.2-23.04-51.2-51.2v-204.8c0-28.16 23.04-51.2 51.2-51.2s51.2 23.04 51.2 51.2v204.8z" fill="#677BA5" p-id="1972"></path></svg>